<svg width="364" height="164" viewBox="0 0 364 164" fill="none" xmlns="http://www.w3.org/2000/svg">
<path d="M100 164L100 1.09673e-05L292.522 2.55187e-06L292.522 164L100 164Z" fill="#003366" fill-opacity="0.05"/>
<path fill-rule="evenodd" clip-rule="evenodd" d="M104.607 82.6138L107.131 82.586L102.808 6.48098e-06L54.026 8.61331e-06C28.3396 2.3713 -4.61661 25.3268 0.755567 82.1053C-3.93124 139.934 28.371 161.632 54.0259 164L102.808 164L104.607 82.6138Z" fill="#003366" fill-opacity="0.05"/>
<path fill-rule="evenodd" clip-rule="evenodd" d="M292.522 0.0571399L292.522 81.4163L292.522 163.945C347.228 165.35 363.826 139.304 363.826 123.5L363.826 81.4163L363.826 81.3572L363.826 39.2734C363.826 23.4698 347.228 -1.34762 292.522 0.0571399Z" fill="#003366" fill-opacity="0.05"/>
<path d="M268.998 28.5217L154.362 28.5217C146.025 28.5217 143.169 19.0145 142.783 14.2609L278.261 14.2609C275.945 24.4686 271.12 28.0213 268.998 28.5217Z" fill="#C2C2C2"/>
<path d="M268.998 135.478L154.362 135.478C146.025 135.478 143.169 144.986 142.783 149.739L278.261 149.739C275.945 139.531 271.12 135.979 268.998 135.478Z" fill="#C2C2C2"/>
<path fill-rule="evenodd" clip-rule="evenodd" d="M85.8451 82C85.2298 98.1113 87.0967 125.012 96.84 137.723C102.901 145.63 114.707 142.543 123.941 138.227L138.901 131.235C143.169 129.24 149.072 127.911 149.819 123.445C150.061 122.002 149.862 120.194 148.922 117.96C146.573 113.119 141.924 99.2786 141.726 82C141.924 64.7214 146.573 50.8806 148.922 46.0398C149.862 43.8066 150.061 41.9981 149.819 40.555C149.072 36.0888 143.168 34.7596 138.9 32.7648L123.941 25.7729C114.707 21.4568 102.901 18.3697 96.84 26.2768C87.0967 38.9884 85.2298 65.8888 85.8451 82Z" fill="#C9C9C9"/>
<path fill-rule="evenodd" clip-rule="evenodd" d="M321.01 75.7099C321.055 79.8985 321.055 84.1015 321.01 88.2901C320.861 102.456 315.651 117.107 310.434 127.831C307.013 134.864 298.198 137.31 290.801 134.062C280.913 129.722 276.477 116.32 278.92 106.225C280.731 98.7385 281.956 90.7411 282.629 84.8338C282.844 82.945 282.844 81.055 282.629 79.1662C281.956 73.2589 280.731 65.2616 278.92 57.7751C276.477 47.6805 280.913 34.2784 290.801 29.9377C298.198 26.6904 307.013 29.1365 310.434 36.1692C315.651 46.8931 320.861 61.5438 321.01 75.7099Z" fill="#F2F2F2"/>
<path d="M35.8262 149.739C35.2881 138.716 28.8303 116.154 7.3045 114.087C8.73956 123.215 16.453 143.125 35.8262 149.739Z" fill="#E0E0E0"/>
<path d="M10.1774 53.9363C21.6376 49.2935 43.1839 34.354 37.6876 11.738C28.5502 16.587 10.2558 31.8153 10.1774 53.9363Z" fill="#E0E0E0"/>
<path d="M349.565 35.6299C343.399 35.986 330.487 32.2108 328.174 14.2609C333.57 15.6855 345.403 21.9537 349.565 35.6299Z" fill="#FF2626"/>
<path d="M349.565 35.6299C343.399 35.986 330.487 32.2108 328.174 14.2609C333.57 15.6855 345.403 21.9537 349.565 35.6299Z" fill="url(#paint0_linear_206_580)"/>
<path d="M331.835 149.393C330.497 143.351 332.538 129.943 351.398 124.644C350.709 130.221 345.832 142.98 331.835 149.393Z" fill="#FF2626"/>
<path d="M331.835 149.393C330.497 143.351 332.538 129.943 351.398 124.644C350.709 130.221 345.832 142.98 331.835 149.393Z" fill="url(#paint1_linear_206_580)"/>
<defs>
<linearGradient id="paint0_linear_206_580" x1="328.174" y1="24.9565" x2="349.565" y2="24.9565" gradientUnits="userSpaceOnUse">
<stop stop-color="#FFA3A3"/>
<stop offset="1" stop-color="#FC3030" stop-opacity="0"/>
</linearGradient>
<linearGradient id="paint1_linear_206_580" x1="339.946" y1="126.438" x2="343.263" y2="147.602" gradientUnits="userSpaceOnUse">
<stop stop-color="#FFA3A3"/>
<stop offset="1" stop-color="#FC3030" stop-opacity="0"/>
</linearGradient>
</defs>
</svg>
