<svg width="40" height="40" viewBox="0 0 40 40" fill="none" xmlns="http://www.w3.org/2000/svg">
<g clip-path="url(#clip0_206_823)">
<path d="M5 20C5 21.9698 5.38799 23.9204 6.14181 25.7403C6.89563 27.5601 8.00052 29.2137 9.3934 30.6066C10.7863 31.9995 12.4399 33.1044 14.2597 33.8582C16.0796 34.612 18.0302 35 20 35C21.9698 35 23.9204 34.612 25.7403 33.8582C27.5601 33.1044 29.2137 31.9995 30.6066 30.6066C31.9995 29.2137 33.1044 27.5601 33.8582 25.7403C34.612 23.9204 35 21.9698 35 20C35 18.0302 34.612 16.0796 33.8582 14.2597C33.1044 12.4399 31.9995 10.7863 30.6066 9.3934C29.2137 8.00052 27.5601 6.89563 25.7403 6.14181C23.9204 5.38799 21.9698 5 20 5C18.0302 5 16.0796 5.38799 14.2597 6.14181C12.4399 6.89563 10.7863 8.00052 9.3934 9.3934C8.00052 10.7863 6.89563 12.4399 6.14181 14.2597C5.38799 16.0796 5 18.0302 5 20Z" stroke="white" stroke-width="2" stroke-linecap="round" stroke-linejoin="round"/>
<path d="M24.6667 15C24.3647 14.4762 23.9261 14.0445 23.3976 13.7509C22.8692 13.4573 22.2708 13.313 21.6667 13.3333H18.3333C17.4493 13.3333 16.6014 13.6845 15.9763 14.3096C15.3512 14.9347 15 15.7826 15 16.6666C15 17.5507 15.3512 18.3985 15.9763 19.0237C16.6014 19.6488 17.4493 20 18.3333 20H21.6667C22.5507 20 23.3986 20.3512 24.0237 20.9763C24.6488 21.6014 25 22.4493 25 23.3333C25 24.2174 24.6488 25.0652 24.0237 25.6903C23.3986 26.3155 22.5507 26.6666 21.6667 26.6666H18.3333C17.7292 26.687 17.1308 26.5426 16.6024 26.2491C16.0739 25.9555 15.6353 25.5237 15.3333 25" stroke="white" stroke-width="2" stroke-linecap="round" stroke-linejoin="round"/>
<path d="M20 11.6666V28.3333" stroke="white" stroke-width="2" stroke-linecap="round" stroke-linejoin="round"/>
</g>
<defs>
<clipPath id="clip0_206_823">
<rect width="40" height="40" fill="white"/>
</clipPath>
</defs>
</svg>
