<svg width="263" height="23" viewBox="0 0 263 23" fill="none" xmlns="http://www.w3.org/2000/svg">
<path d="M200.695 17.7364V20.7033H189.35V3.57843H200.695V6.53345H192.934V10.6634H200.256V13.4166H192.934V17.7364H200.695Z" fill="#E37E02"/>
<path d="M177.315 6.37917V11.8382H180.401C182.204 11.8382 183.261 10.8058 183.261 9.10871C183.261 7.44725 182.145 6.37917 180.365 6.37917H177.315ZM177.315 14.4372V20.7033H173.731V3.57843H180.745C184.685 3.57843 186.94 5.65525 186.94 9.0375C186.94 11.233 185.8 13.1318 183.83 13.9032L187.438 20.7033H183.379L180.187 14.4372H177.315Z" fill="#E37E02"/>
<path d="M168.116 20.7033L166.811 16.5497H160.794L159.489 20.7033H155.81L161.755 3.57843H165.968L171.926 20.7033H168.116ZM163.761 6.85387L161.566 13.8676H166.04L163.844 6.85387H163.761Z" fill="#E37E02"/>
<path d="M154.005 20.7033H150.421V13.4878H142.707V20.7033H139.123V3.57843H142.707V10.5328H150.421V3.57843H154.005V20.7033Z" fill="#E37E02"/>
<path d="M123.077 15.8257H126.53C126.696 17.238 128.168 18.1637 130.067 18.1637C131.977 18.1637 133.283 17.2499 133.283 15.9919C133.283 14.8763 132.464 14.2592 130.399 13.7964L128.168 13.3098C125.011 12.6334 123.457 11.0313 123.457 8.5272C123.457 5.37043 126.186 3.28174 130.007 3.28174C133.995 3.28174 136.499 5.33483 136.558 8.43226H133.2C133.081 6.98442 131.811 6.10622 130.019 6.10622C128.251 6.10622 127.064 6.94881 127.064 8.21864C127.064 9.27485 127.895 9.86823 129.865 10.3192L131.942 10.7583C135.372 11.4941 136.867 12.9657 136.867 15.5765C136.867 18.8994 134.173 21 129.924 21C125.806 21 123.184 19.0419 123.077 15.8257Z" fill="#E37E02"/>
<path d="M121.082 17.7364V20.7033H109.737V3.57843H121.082V6.53345H113.321V10.6634H120.643V13.4166H113.321V17.7364H121.082Z" fill="#E37E02"/>
<path d="M92.6699 3.57843H99.2089C104.348 3.57843 107.374 6.64026 107.374 12.0756C107.374 17.5109 104.348 20.7033 99.2089 20.7033H92.6699V3.57843ZM96.2539 6.53345V17.7364H98.7817C101.986 17.7364 103.719 15.7901 103.719 12.0875C103.719 8.50346 101.938 6.53345 98.7817 6.53345H96.2539Z" fill="#E37E02"/>
<path d="M89.773 20.7033H86.189V3.57843H89.773V20.7033Z" fill="#E37E02"/>
<path d="M74.1542 6.37917V11.8382H77.2397C79.0436 11.8382 80.0998 10.8058 80.0998 9.10871C80.0998 7.44725 78.9843 6.37917 77.2041 6.37917H74.1542ZM74.1542 14.4372V20.7033H70.5702V3.57843H77.5839C81.5239 3.57843 83.7788 5.65525 83.7788 9.0375C83.7788 11.233 82.6395 13.1318 80.6695 13.9032L84.2772 20.7033H80.2185L77.0261 14.4372H74.1542Z" fill="#E37E02"/>
<path d="M60.0889 20.7033L58.7834 16.5497H52.7666L51.4611 20.7033H47.7822L53.7278 3.57843H57.9408L63.8983 20.7033H60.0889ZM55.7335 6.85387L53.538 13.8676H58.012L55.8165 6.85387H55.7335Z" fill="#003366"/>
<path d="M46.9266 13.5116C46.9266 18.1755 44.1021 21 39.3314 21C34.2164 21 31.0834 17.6533 31.0834 12.0875C31.0834 6.60465 34.2164 3.28174 39.2483 3.28174C43.2477 3.28174 46.262 5.64338 46.7723 9.10871H43.1764C42.6543 7.31671 41.1946 6.24863 39.2602 6.24863C36.4357 6.24863 34.7386 8.39666 34.7386 12.04C34.7386 15.7545 36.5425 18.0212 39.3907 18.0212C41.7286 18.0212 43.3545 16.5853 43.4257 14.461L43.4375 14.188H39.7111V11.5772H46.9266V13.5116Z" fill="#003366"/>
<path d="M28.9817 17.7364V20.7033H17.6363V3.57843H28.9817V6.53345H21.2203V10.6634H28.5426V13.4166H21.2203V17.7364H28.9817Z" fill="#003366"/>
<path d="M10.0756 20.7033H5.75576L0 3.57843H4.01123L7.92753 17.0125H8.0106L11.9269 3.57843H15.8313L10.0756 20.7033Z" fill="#003366"/>
<path d="M225.163 23L225.163 1.07288e-06L252.163 -1.07324e-07L252.163 23L225.163 23Z" fill="#003366"/>
<path fill-rule="evenodd" clip-rule="evenodd" d="M225.81 11.5861L226.163 11.5822L225.557 4.43711e-07L218.716 7.42758e-07C215.113 0.332561 210.492 3.55193 211.245 11.5148C210.588 19.6249 215.118 22.6678 218.716 23L225.557 23L225.81 11.5861Z" fill="#003366"/>
<path fill-rule="evenodd" clip-rule="evenodd" d="M252.163 0.00801385L252.163 11.4181L252.163 22.9923C259.836 23.1894 262.163 19.5365 262.163 17.3201L262.163 11.4181L262.163 11.4099L262.163 5.50786C262.163 3.2915 259.836 -0.188995 252.163 0.00801385Z" fill="#003366"/>
<path d="M248.864 4L232.787 4C231.618 4 231.218 2.66667 231.163 2L250.163 2C249.839 3.43158 249.162 3.92982 248.864 4Z" fill="#F2F2F2"/>
<path d="M248.864 19L232.787 19C231.618 19 231.218 20.3333 231.163 21L250.163 21C249.839 19.5684 249.162 19.0702 248.864 19Z" fill="#F2F2F2"/>
<path fill-rule="evenodd" clip-rule="evenodd" d="M223.178 11.5C223.092 13.7595 223.354 17.5321 224.72 19.3148C225.57 20.4238 227.226 19.9908 228.521 19.3855L230.619 18.4049C231.217 18.1252 232.045 17.9388 232.15 17.3124C232.184 17.11 232.156 16.8564 232.024 16.5432C231.695 15.8643 231.043 13.9232 231.015 11.5C231.043 9.07678 231.695 7.13569 232.024 6.45681C232.156 6.1436 232.184 5.88997 232.15 5.68758C232.045 5.06124 231.217 4.87482 230.619 4.59506L228.521 3.6145C227.226 3.00918 225.57 2.57623 224.72 3.68516C223.354 5.46788 223.092 9.2405 223.178 11.5Z" fill="#F2F2F2"/>
<path fill-rule="evenodd" clip-rule="evenodd" d="M256.159 10.6179C256.165 11.2053 256.165 11.7947 256.159 12.3821C256.138 14.3689 255.407 16.4235 254.675 17.9275C254.196 18.9138 252.959 19.2568 251.922 18.8014C250.535 18.1927 249.913 16.3131 250.256 14.8974C250.51 13.8475 250.682 12.7259 250.776 11.8974C250.806 11.6325 250.806 11.3675 250.776 11.1026C250.682 10.2741 250.51 9.15253 250.256 8.1026C249.913 6.68689 250.535 4.80734 251.922 4.19857C252.959 3.74316 254.196 4.08621 254.675 5.07251C255.407 6.57647 256.138 8.63114 256.159 10.6179Z" fill="#F2F2F2"/>
<path d="M216.163 21C216.088 19.4541 215.182 16.2899 212.163 16C212.365 17.2802 213.446 20.0725 216.163 21Z" fill="#E0E0E0"/>
<path d="M212.566 7.56436C214.174 6.91324 217.195 4.81806 216.424 1.64631C215.143 2.32635 212.577 4.46202 212.566 7.56436Z" fill="#E0E0E0"/>
<path d="M260.163 4.99688C259.299 5.04682 257.488 4.51738 257.163 2C257.92 2.19979 259.58 3.07888 260.163 4.99688Z" fill="#FF2626"/>
<path d="M260.163 4.99688C259.299 5.04682 257.488 4.51738 257.163 2C257.92 2.19979 259.58 3.07888 260.163 4.99688Z" fill="url(#paint0_linear_206_857)"/>
<path d="M257.677 20.9515C257.489 20.1043 257.775 18.2239 260.42 17.4806C260.324 18.2629 259.64 20.0522 257.677 20.9515Z" fill="#FF2626"/>
<path d="M257.677 20.9515C257.489 20.1043 257.775 18.2239 260.42 17.4806C260.324 18.2629 259.64 20.0522 257.677 20.9515Z" fill="url(#paint1_linear_206_857)"/>
<defs>
<linearGradient id="paint0_linear_206_857" x1="257.163" y1="3.5" x2="260.163" y2="3.5" gradientUnits="userSpaceOnUse">
<stop stop-color="#FFA3A3"/>
<stop offset="1" stop-color="#FC3030" stop-opacity="0"/>
</linearGradient>
<linearGradient id="paint1_linear_206_857" x1="258.814" y1="17.7323" x2="259.279" y2="20.7004" gradientUnits="userSpaceOnUse">
<stop stop-color="#FFA3A3"/>
<stop offset="1" stop-color="#FC3030" stop-opacity="0"/>
</linearGradient>
</defs>
</svg>
