<svg width="40" height="40" viewBox="0 0 40 40" fill="none" xmlns="http://www.w3.org/2000/svg">
<g clip-path="url(#clip0_206_844)">
<path d="M20 13.3334C20.884 13.3334 21.7319 13.6846 22.357 14.3097C22.9821 14.9348 23.3333 15.7827 23.3333 16.6667V23.3334C23.3333 24.2174 22.9821 25.0653 22.357 25.6904C21.7319 26.3155 20.884 26.6667 20 26.6667C19.1159 26.6667 18.2681 26.3155 17.6429 25.6904C17.0178 25.0653 16.6666 24.2174 16.6666 23.3334V16.6667C16.6666 15.7827 17.0178 14.9348 17.6429 14.3097C18.2681 13.6846 19.1159 13.3334 20 13.3334Z" stroke="white" stroke-width="2" stroke-linecap="round" stroke-linejoin="round"/>
<path d="M28.3334 25C28.9084 26 30.43 26.6667 31.6667 26.6667C32.5508 26.6667 33.3986 26.3155 34.0237 25.6904C34.6489 25.0653 35 24.2174 35 23.3334C35 22.4493 34.6489 21.6015 34.0237 20.9764C33.3986 20.3512 32.5508 20 31.6667 20C30.7827 20 29.9348 19.6489 29.3097 19.0237C28.6846 18.3986 28.3334 17.5508 28.3334 16.6667C28.3334 15.7827 28.6846 14.9348 29.3097 14.3097C29.9348 13.6846 30.7827 13.3334 31.6667 13.3334C32.91 13.3334 34.4267 13.99 35 15" stroke="white" stroke-width="2" stroke-linecap="round" stroke-linejoin="round"/>
<path d="M5 25C5.575 26 7.09667 26.6667 8.33333 26.6667C9.21739 26.6667 10.0652 26.3155 10.6904 25.6904C11.3155 25.0653 11.6667 24.2174 11.6667 23.3334C11.6667 22.4493 11.3155 21.6015 10.6904 20.9764C10.0652 20.3512 9.21739 20 8.33333 20C7.44928 20 6.60143 19.6489 5.97631 19.0237C5.35119 18.3986 5 17.5508 5 16.6667C5 15.7827 5.35119 14.9348 5.97631 14.3097C6.60143 13.6846 7.44928 13.3334 8.33333 13.3334C9.57667 13.3334 11.0933 13.99 11.6667 15" stroke="white" stroke-width="2" stroke-linecap="round" stroke-linejoin="round"/>
</g>
<defs>
<clipPath id="clip0_206_844">
<rect width="40" height="40" fill="white"/>
</clipPath>
</defs>
</svg>
