<svg width="40" height="40" viewBox="0 0 40 40" fill="none" xmlns="http://www.w3.org/2000/svg">
<g clip-path="url(#clip0_206_828)">
<path d="M28.3334 13.3333V8.33329C28.3334 7.89127 28.1578 7.46734 27.8452 7.15478C27.5326 6.84222 27.1087 6.66663 26.6667 6.66663H10C9.11597 6.66663 8.26812 7.01782 7.643 7.64294C7.01788 8.26806 6.66669 9.1159 6.66669 9.99996M6.66669 9.99996C6.66669 10.884 7.01788 11.7319 7.643 12.357C8.26812 12.9821 9.11597 13.3333 10 13.3333H30C30.442 13.3333 30.866 13.5089 31.1785 13.8214C31.4911 14.134 31.6667 14.5579 31.6667 15V20M6.66669 9.99996V30C6.66669 30.884 7.01788 31.7319 7.643 32.357C8.26812 32.9821 9.11597 33.3333 10 33.3333H30C30.442 33.3333 30.866 33.1577 31.1785 32.8451C31.4911 32.5326 31.6667 32.1087 31.6667 31.6666V26.6666" stroke="white" stroke-width="2" stroke-linecap="round" stroke-linejoin="round"/>
<path d="M33.3333 20V26.6667H26.6666C25.7826 26.6667 24.9347 26.3155 24.3096 25.6904C23.6845 25.0652 23.3333 24.2174 23.3333 23.3333C23.3333 22.4493 23.6845 21.6014 24.3096 20.9763C24.9347 20.3512 25.7826 20 26.6666 20H33.3333Z" stroke="white" stroke-width="2" stroke-linecap="round" stroke-linejoin="round"/>
</g>
<defs>
<clipPath id="clip0_206_828">
<rect width="40" height="40" fill="white"/>
</clipPath>
</defs>
</svg>
